<svg width="26" height="26" viewBox="0 0 26 26" fill="none" xmlns="http://www.w3.org/2000/svg">
<g clip-path="url(#clip0_26_82)">
<path d="M21.125 0H4.875C3.58251 0.00143371 2.34337 0.515509 1.42944 1.42944C0.515509 2.34337 0.00143371 3.58251 0 4.875L0 21.125C0.00143371 22.4175 0.515509 23.6566 1.42944 24.5706C2.34337 25.4845 3.58251 25.9986 4.875 26H21.125C22.4175 25.9986 23.6566 25.4845 24.5706 24.5706C25.4845 23.6566 25.9986 22.4175 26 21.125V4.875C25.9986 3.58251 25.4845 2.34337 24.5706 1.42944C23.6566 0.515509 22.4175 0.00143371 21.125 0V0ZM4.875 3.25H21.125C21.556 3.25 21.9693 3.42121 22.274 3.72595C22.5788 4.0307 22.75 4.44402 22.75 4.875V21.125C22.7503 21.3384 22.7083 21.5497 22.6265 21.7468C22.5447 21.9439 22.4247 22.1229 22.2733 22.2733L12.8137 12.8137C12.001 12.0013 10.899 11.5449 9.75 11.5449C8.60096 11.5449 7.49895 12.0013 6.68633 12.8137L3.25 16.25V4.875C3.25 4.44402 3.42121 4.0307 3.72595 3.72595C4.0307 3.42121 4.44402 3.25 4.875 3.25Z" fill="black" fill-opacity="0.6"/>
<path d="M16.7913 10.8334C18.2871 10.8334 19.4997 9.62079 19.4997 8.12502C19.4997 6.62925 18.2871 5.41669 16.7913 5.41669C15.2956 5.41669 14.083 6.62925 14.083 8.12502C14.083 9.62079 15.2956 10.8334 16.7913 10.8334Z" fill="black" fill-opacity="0.6"/>
</g>
<defs>
<clipPath id="clip0_26_82">
<rect width="26" height="26" fill="white"/>
</clipPath>
</defs>
</svg>
