<svg width="26" height="26" viewBox="0 0 26 26" fill="none" xmlns="http://www.w3.org/2000/svg">
<g clip-path="url(#clip0_44_424)">
<path d="M15.167 7.58333V0.498333C16.1691 0.87678 17.0794 1.46392 17.8374 2.22083L21.6117 5.99733C22.3695 6.75445 22.9571 7.66447 23.3353 8.66667H16.2503C15.963 8.66667 15.6875 8.55253 15.4843 8.34937C15.2811 8.1462 15.167 7.87065 15.167 7.58333ZM23.8077 10.8333H16.2503C15.3884 10.8333 14.5617 10.4909 13.9522 9.88143C13.3427 9.27194 13.0003 8.44529 13.0003 7.58333V0.026C12.8259 0.0140833 12.6515 0 12.4749 0H7.58366C6.1476 0.00172018 4.77085 0.572955 3.7554 1.5884C2.73995 2.60385 2.16871 3.98061 2.16699 5.41667V20.5833C2.16871 22.0194 2.73995 23.3961 3.7554 24.4116C4.77085 25.427 6.1476 25.9983 7.58366 26H18.417C19.8531 25.9983 21.2298 25.427 22.2453 24.4116C23.2607 23.3961 23.8319 22.0194 23.8337 20.5833V11.3588C23.8337 11.1822 23.8196 11.0078 23.8077 10.8333ZM15.167 15.1667H14.0837V20.0417C14.0837 20.5773 13.9248 21.101 13.6272 21.5463C13.3296 21.9917 12.9066 22.3389 12.4118 22.5438C11.9169 22.7488 11.3723 22.8025 10.847 22.698C10.3216 22.5935 9.83901 22.3355 9.46025 21.9567C9.08148 21.578 8.82353 21.0954 8.71903 20.57C8.61453 20.0447 8.66816 19.5001 8.87315 19.0052C9.07814 18.5103 9.42527 18.0874 9.87066 17.7898C10.316 17.4922 10.8397 17.3333 11.3753 17.3333C11.5572 17.3337 11.7386 17.3518 11.917 17.3875V15.1667C11.917 14.592 12.1453 14.0409 12.5516 13.6346C12.9579 13.2283 13.509 13 14.0837 13H15.167C15.4543 13 15.7299 13.1141 15.933 13.3173C16.1362 13.5205 16.2503 13.796 16.2503 14.0833C16.2503 14.3707 16.1362 14.6462 15.933 14.8494C15.7299 15.0525 15.4543 15.1667 15.167 15.1667Z" fill="#636363"/>
</g>
<defs>
<clipPath id="clip0_44_424">
<rect width="26" height="26" fill="white"/>
</clipPath>
</defs>
</svg>
