<svg width="18" height="18" viewBox="0 0 18 18" fill="none" xmlns="http://www.w3.org/2000/svg">
<g clip-path="url(#clip0_23_1711)">
<path d="M15.369 5.97677L8.21551 0.731271C7.65677 0.322135 6.99566 0.0757051 6.30545 0.0192981C5.61524 -0.037109 4.92289 0.0987095 4.30514 0.411699C3.6874 0.724688 3.16839 1.20262 2.80564 1.79253C2.44289 2.38243 2.25057 3.06126 2.25 3.75377V14.25C2.24893 14.9432 2.44024 15.6231 2.80264 16.214C3.16505 16.8049 3.68432 17.2837 4.30267 17.597C4.92103 17.9103 5.61419 18.0458 6.30501 17.9885C6.99583 17.9313 7.6572 17.6834 8.21551 17.2725L15.369 12.027C15.8437 11.6787 16.2296 11.2235 16.4957 10.6982C16.7617 10.173 16.9003 9.59253 16.9003 9.00377C16.9003 8.41501 16.7617 7.83452 16.4957 7.30929C16.2296 6.78406 15.8437 6.32886 15.369 5.98052V5.97677Z" fill="#0D87D1"/>
</g>
<defs>
<clipPath id="clip0_23_1711">
<rect width="18" height="18" fill="white"/>
</clipPath>
</defs>
</svg>
