<svg width="24" height="24" viewBox="0 0 24 24" fill="none" xmlns="http://www.w3.org/2000/svg">
<path d="M9 0.75H3C1.75736 0.75 0.75 1.75736 0.75 3V13.5C0.75 14.7426 1.75736 15.75 3 15.75H9C10.2426 15.75 11.25 14.7426 11.25 13.5V3C11.25 1.75736 10.2426 0.75 9 0.75Z" fill="#4D4D4D"/>
<path d="M9 17.25H3C1.75736 17.25 0.75 18.2574 0.75 19.5V21C0.75 22.2426 1.75736 23.25 3 23.25H9C10.2426 23.25 11.25 22.2426 11.25 21V19.5C11.25 18.2574 10.2426 17.25 9 17.25Z" fill="#4D4D4D"/>
<path d="M21 8.25H15C13.7574 8.25 12.75 9.25736 12.75 10.5V21C12.75 22.2426 13.7574 23.25 15 23.25H21C22.2426 23.25 23.25 22.2426 23.25 21V10.5C23.25 9.25736 22.2426 8.25 21 8.25Z" fill="#4D4D4D"/>
<path d="M21 0.75H15C13.7574 0.75 12.75 1.75736 12.75 3V4.5C12.75 5.74264 13.7574 6.75 15 6.75H21C22.2426 6.75 23.25 5.74264 23.25 4.5V3C23.25 1.75736 22.2426 0.75 21 0.75Z" fill="#4D4D4D"/>
</svg>
