<svg width="24" height="24" viewBox="0 0 24 24" fill="none" xmlns="http://www.w3.org/2000/svg">
<g clip-path="url(#clip0_9_83)">
<path d="M12 0C5.38329 0 0 5.38329 0 12C0 18.6167 5.38329 24 12 24C18.6167 24 24 18.6167 24 12C24 5.38329 18.6167 0 12 0ZM13.5 19.5H10.5V16.5H13.5V19.5ZM15 12.6211L13.5 14.1211V15H10.5V13.5C10.5 13.1023 10.6582 12.7207 10.9395 12.4394L12.8789 10.5C13.2737 10.1053 13.5 9.55813 13.5 9.00002C13.5 8.17313 12.8269 7.50004 12 7.50004C11.1731 7.50004 10.5 8.17313 10.5 9.00002V10.5H7.50004V9.00002C7.50004 6.51859 9.51856 4.50001 12 4.50001C14.4815 4.50001 16.5001 6.51854 16.5001 9.00002C16.5 10.3682 15.9675 11.6543 15 12.6211Z" fill="#0D87D1" fill-opacity="0.8"/>
</g>
<defs>
<clipPath id="clip0_9_83">
<rect width="24" height="24" fill="white"/>
</clipPath>
</defs>
</svg>
