<svg width="25" height="25" viewBox="0 0 25 25" fill="none" xmlns="http://www.w3.org/2000/svg">
<g clip-path="url(#clip0_9_97)">
<path d="M12.0519 7.06166C14.002 7.06166 15.5828 5.48085 15.5828 3.53083C15.5828 1.58081 14.002 0 12.0519 0C10.1019 0 8.52112 1.58081 8.52112 3.53083C8.52112 5.48085 10.1019 7.06166 12.0519 7.06166Z" fill="#0D87D1" fill-opacity="0.8"/>
<path d="M22.6443 21.2791C22.6443 19.7226 21.3817 18.4558 19.7838 18.4558C19.7824 18.4558 19.7817 18.4558 19.7804 18.4558C18.648 18.5296 12.5325 21.5308 10.2533 22.7783L7.83142 24.1038H19.8197C21.3775 24.1038 22.6443 22.837 22.6443 21.2791Z" fill="#0D87D1" fill-opacity="0.8"/>
<path d="M22.3795 15.7842C20.2341 14.0685 19.5908 12.1206 19.1135 9.68246C19.1135 8.23506 17.9402 7.06165 16.4927 7.06165H7.61105C6.16365 7.06165 4.99024 8.23501 4.99024 9.68246C4.52732 12.0473 3.93141 14.0192 1.72417 15.7843L0 17.0421H2.16557C4.48956 17.0421 6.7984 15.9284 8.28798 14.1961L9.07663 18.8253C10.1168 19.3087 11.1549 19.8172 12.0496 20.266C12.9471 19.8146 13.9881 19.3029 15.0272 18.8172L15.8944 13.9161C17.3909 15.8801 19.5825 17.0421 21.9382 17.0421H24.1038L22.3795 15.7842Z" fill="#0D87D1" fill-opacity="0.8"/>
<path d="M4.32332 18.4558C4.32196 18.4558 4.32125 18.4558 4.31989 18.4558C2.72202 18.4558 1.45935 19.7226 1.45935 21.2791C1.45935 22.837 2.72616 24.1038 4.28401 24.1038H4.66054C4.80719 24.0272 10.6408 20.9826 10.4942 21.059C7.95198 19.8124 5.0663 18.5043 4.32332 18.4558Z" fill="#0D87D1" fill-opacity="0.8"/>
</g>
<defs>
<clipPath id="clip0_9_97">
<rect width="24.1038" height="24.1038" fill="white"/>
</clipPath>
</defs>
</svg>
