<svg width="24" height="24" viewBox="0 0 24 24" fill="none" xmlns="http://www.w3.org/2000/svg">
<g clip-path="url(#clip0_9_106)">
<path d="M16.1541 3.73603C16.7256 2.35721 16.0711 0.776139 14.6923 0.204605C13.3134 -0.366929 11.7323 0.287506 11.1608 1.66633C10.5893 3.04515 11.2438 4.62622 12.6226 5.19776C14.0014 5.76929 15.5825 5.11486 16.1541 3.73603Z" fill="black" fill-opacity="0.8"/>
<path d="M9.54193 15.7499V15.5754L2.15372 19.3155C0.903052 19.9487 0.126099 21.2128 0.126099 22.6146V24L11.1014 18.7374C10.1595 18.0774 9.54193 16.9847 9.54193 15.7499Z" fill="black" fill-opacity="0.8"/>
<path d="M16.2943 8.13865H23.874V6.73132H2.74011V8.13865H10.8134V13.7721H16.343L16.2943 8.13865Z" fill="black" fill-opacity="0.8"/>
<path d="M13.1884 18.0376H18.8144V21.0817C18.8144 22.687 20.1158 23.9884 21.7212 23.9884L21.6888 17.7567C21.6813 16.3043 20.5017 15.1308 19.0492 15.1308H10.9006V15.7498C10.9006 17.0133 11.9249 18.0376 13.1884 18.0376Z" fill="black" fill-opacity="0.8"/>
</g>
<defs>
<clipPath id="clip0_9_106">
<rect width="24" height="24" fill="white"/>
</clipPath>
</defs>
</svg>
