<svg width="22" height="22" viewBox="0 0 22 22" fill="none" xmlns="http://www.w3.org/2000/svg">
<g clip-path="url(#clip0_9_85)">
<path d="M20.1012 17.6498H16.6693C14.5067 17.6498 12.7473 15.8903 12.7473 13.7277C12.7473 11.5651 14.5067 9.80562 16.6693 9.80562H20.1012C20.3722 9.80562 20.5915 9.58634 20.5915 9.31534V7.84455C20.5915 6.81647 19.794 5.98037 18.7865 5.89929L15.9709 0.981336C15.7099 0.526494 15.2886 0.201403 14.7844 0.0664124C14.2827 -0.0676594 13.758 0.00275475 13.3089 0.264142L3.65666 5.88348H1.96144C0.879899 5.88348 0.000366211 6.76297 0.000366211 7.84455V19.6109C0.000366211 20.6924 0.879853 21.572 1.96144 21.572H18.6304C19.712 21.572 20.5915 20.6925 20.5915 19.6109V18.1401C20.5915 17.8691 20.3722 17.6498 20.1012 17.6498ZM16.5789 4.0176L17.6471 5.88348H13.374L16.5789 4.0176ZM5.60546 5.88348L13.8025 1.11155C14.0241 0.981796 14.2831 0.947324 14.5307 1.01342C14.7811 1.08043 14.9898 1.24226 15.1196 1.46872L15.1206 1.47051L7.54097 5.88348H5.60546Z" fill="black" fill-opacity="0.8"/>
<path d="M20.101 10.7861H16.6691C15.047 10.7861 13.7275 12.1056 13.7275 13.7277C13.7275 15.3498 15.047 16.6693 16.6691 16.6693H20.101C20.912 16.6693 21.5718 16.0096 21.5718 15.1985V12.2569C21.5718 11.4459 20.912 10.7861 20.101 10.7861ZM16.6691 14.7082C16.1286 14.7082 15.6886 14.2682 15.6886 13.7277C15.6886 13.1872 16.1286 12.7472 16.6691 12.7472C17.2096 12.7472 17.6496 13.1872 17.6496 13.7277C17.6497 14.2682 17.2097 14.7082 16.6691 14.7082Z" fill="black" fill-opacity="0.8"/>
</g>
<defs>
<clipPath id="clip0_9_85">
<rect width="21.572" height="21.572" fill="white"/>
</clipPath>
</defs>
</svg>
