<svg width="28" height="28" viewBox="0 0 28 28" fill="none" xmlns="http://www.w3.org/2000/svg">
<g clip-path="url(#clip0_9_89)">
<path d="M14.1408 0C6.49906 0 0.281738 6.21733 0.281738 13.8591C0.281738 21.5009 6.49906 27.7182 14.1408 27.7182C21.7826 27.7182 28 21.5009 28 13.8591C28 6.21733 21.7826 0 14.1408 0ZM14.1408 4.04226C17.8024 4.04226 20.7817 7.02148 20.7817 10.6831C20.7817 14.3447 17.8024 17.3239 14.1408 17.3239C10.4793 17.3239 7.50001 14.3447 7.50001 10.683C7.50001 7.02142 10.4793 4.04226 14.1408 4.04226ZM14.1408 25.4083C10.3671 25.4083 7.02073 23.5809 4.91193 20.7734C7.22228 19.6617 10.5217 18.4788 14.1408 18.4788C17.7603 18.4788 21.06 19.6619 23.3698 20.7733C21.261 23.5809 17.9146 25.4083 14.1408 25.4083Z" fill="white"/>
</g>
<defs>
<clipPath id="clip0_9_89">
<rect width="27.7182" height="27.7182" fill="white" transform="translate(0.281738)"/>
</clipPath>
</defs>
</svg>
